<svg width="157" height="170" viewBox="0 0 157 170" fill="none" xmlns="http://www.w3.org/2000/svg">
<path fill-rule="evenodd" clip-rule="evenodd" d="M5.99396 2.65909C5.99396 4.12824 4.80402 5.31818 3.33487 5.31818C1.86572 5.31818 0.675781 4.12824 0.675781 2.65909C0.675781 1.18994 1.86572 0 3.33487 0C4.80402 0 5.99396 1.18994 5.99396 2.65909Z" fill="#AB9FF8"/>
<path fill-rule="evenodd" clip-rule="evenodd" d="M5.99396 15.954C5.99396 17.4232 4.80402 18.6131 3.33487 18.6131C1.86572 18.6131 0.675781 17.4232 0.675781 15.954C0.675781 14.4849 1.86572 13.2949 3.33487 13.2949C4.80402 13.2949 5.99396 14.4849 5.99396 15.954Z" fill="#AB9FF8"/>
<path fill-rule="evenodd" clip-rule="evenodd" d="M20.1766 15.954C20.1766 17.4232 18.9866 18.6131 17.5175 18.6131C16.0483 18.6131 14.8584 17.4232 14.8584 15.954C14.8584 14.4849 16.0483 13.2949 17.5175 13.2949C18.9866 13.2949 20.1766 14.4849 20.1766 15.954Z" fill="#AB9FF8"/>
<path fill-rule="evenodd" clip-rule="evenodd" d="M33.4715 15.954C33.4715 17.4232 32.2816 18.6131 30.8124 18.6131C29.3433 18.6131 28.1533 17.4232 28.1533 15.954C28.1533 14.4849 29.3433 13.2949 30.8124 13.2949C32.2816 13.2949 33.4715 14.4849 33.4715 15.954Z" fill="#AB9FF8"/>
<path fill-rule="evenodd" clip-rule="evenodd" d="M46.7664 15.954C46.7664 17.4232 45.5765 18.6131 44.1073 18.6131C42.6382 18.6131 41.4482 17.4232 41.4482 15.954C41.4482 14.4849 42.6382 13.2949 44.1073 13.2949C45.5765 13.2949 46.7664 14.4849 46.7664 15.954Z" fill="#AB9FF8"/>
<path fill-rule="evenodd" clip-rule="evenodd" d="M60.949 15.954C60.949 17.4232 59.7591 18.6131 58.2899 18.6131C56.8208 18.6131 55.6309 17.4232 55.6309 15.954C55.6309 14.4849 56.8208 13.2949 58.2899 13.2949C59.7591 13.2949 60.949 14.4849 60.949 15.954Z" fill="#AB9FF8"/>
<path fill-rule="evenodd" clip-rule="evenodd" d="M74.244 15.954C74.244 17.4232 73.054 18.6131 71.5849 18.6131C70.1157 18.6131 68.9258 17.4232 68.9258 15.954C68.9258 14.4849 70.1157 13.2949 71.5849 13.2949C73.054 13.2949 74.244 14.4849 74.244 15.954Z" fill="#AB9FF8"/>
<path fill-rule="evenodd" clip-rule="evenodd" d="M88.4256 15.954C88.4256 17.4232 87.2357 18.6131 85.7665 18.6131C84.2974 18.6131 83.1074 17.4232 83.1074 15.954C83.1074 14.4849 84.2974 13.2949 85.7665 13.2949C87.2357 13.2949 88.4256 14.4849 88.4256 15.954Z" fill="#AB9FF8"/>
<path fill-rule="evenodd" clip-rule="evenodd" d="M101.721 15.954C101.721 17.4232 100.532 18.6131 99.0624 18.6131C97.5933 18.6131 96.4033 17.4232 96.4033 15.954C96.4033 14.4849 97.5933 13.2949 99.0624 13.2949C100.532 13.2949 101.721 14.4849 101.721 15.954Z" fill="#AB9FF8"/>
<path fill-rule="evenodd" clip-rule="evenodd" d="M115.903 15.954C115.903 17.4232 114.713 18.6131 113.244 18.6131C111.775 18.6131 110.585 17.4232 110.585 15.954C110.585 14.4849 111.775 13.2949 113.244 13.2949C114.713 13.2949 115.903 14.4849 115.903 15.954Z" fill="#AB9FF8"/>
<path fill-rule="evenodd" clip-rule="evenodd" d="M129.198 15.954C129.198 17.4232 128.008 18.6131 126.539 18.6131C125.07 18.6131 123.88 17.4232 123.88 15.954C123.88 14.4849 125.07 13.2949 126.539 13.2949C128.008 13.2949 129.198 14.4849 129.198 15.954Z" fill="#AB9FF8"/>
<path fill-rule="evenodd" clip-rule="evenodd" d="M142.494 15.954C142.494 17.4232 141.304 18.6131 139.835 18.6131C138.366 18.6131 137.176 17.4232 137.176 15.954C137.176 14.4849 138.366 13.2949 139.835 13.2949C141.304 13.2949 142.494 14.4849 142.494 15.954Z" fill="#AB9FF8"/>
<path fill-rule="evenodd" clip-rule="evenodd" d="M156.676 15.954C156.676 17.4232 155.486 18.6131 154.017 18.6131C152.547 18.6131 151.357 17.4232 151.357 15.954C151.357 14.4849 152.547 13.2949 154.017 13.2949C155.486 13.2949 156.676 14.4849 156.676 15.954Z" fill="#AB9FF8"/>
<path fill-rule="evenodd" clip-rule="evenodd" d="M5.99396 30.1366C5.99396 31.6058 4.80402 32.7957 3.33487 32.7957C1.86572 32.7957 0.675781 31.6058 0.675781 30.1366C0.675781 28.6675 1.86572 27.4775 3.33487 27.4775C4.80402 27.4775 5.99396 28.6675 5.99396 30.1366Z" fill="#AB9FF8"/>
<path fill-rule="evenodd" clip-rule="evenodd" d="M20.1766 30.1366C20.1766 31.6058 18.9866 32.7957 17.5175 32.7957C16.0483 32.7957 14.8584 31.6058 14.8584 30.1366C14.8584 28.6675 16.0483 27.4775 17.5175 27.4775C18.9866 27.4775 20.1766 28.6675 20.1766 30.1366Z" fill="#AB9FF8"/>
<path fill-rule="evenodd" clip-rule="evenodd" d="M33.4715 30.1366C33.4715 31.6058 32.2816 32.7957 30.8124 32.7957C29.3433 32.7957 28.1533 31.6058 28.1533 30.1366C28.1533 28.6675 29.3433 27.4775 30.8124 27.4775C32.2816 27.4775 33.4715 28.6675 33.4715 30.1366Z" fill="#AB9FF8"/>
<path fill-rule="evenodd" clip-rule="evenodd" d="M46.7664 30.1366C46.7664 31.6058 45.5765 32.7957 44.1073 32.7957C42.6382 32.7957 41.4482 31.6058 41.4482 30.1366C41.4482 28.6675 42.6382 27.4775 44.1073 27.4775C45.5765 27.4775 46.7664 28.6675 46.7664 30.1366Z" fill="#AB9FF8"/>
<path fill-rule="evenodd" clip-rule="evenodd" d="M60.949 30.1366C60.949 31.6058 59.7591 32.7957 58.2899 32.7957C56.8208 32.7957 55.6309 31.6058 55.6309 30.1366C55.6309 28.6675 56.8208 27.4775 58.2899 27.4775C59.7591 27.4775 60.949 28.6675 60.949 30.1366Z" fill="#AB9FF8"/>
<path fill-rule="evenodd" clip-rule="evenodd" d="M74.244 30.1366C74.244 31.6058 73.054 32.7957 71.5849 32.7957C70.1157 32.7957 68.9258 31.6058 68.9258 30.1366C68.9258 28.6675 70.1157 27.4775 71.5849 27.4775C73.054 27.4775 74.244 28.6675 74.244 30.1366Z" fill="#AB9FF8"/>
<path fill-rule="evenodd" clip-rule="evenodd" d="M88.4256 30.1366C88.4256 31.6058 87.2357 32.7957 85.7665 32.7957C84.2974 32.7957 83.1074 31.6058 83.1074 30.1366C83.1074 28.6675 84.2974 27.4775 85.7665 27.4775C87.2357 27.4775 88.4256 28.6675 88.4256 30.1366Z" fill="#AB9FF8"/>
<path fill-rule="evenodd" clip-rule="evenodd" d="M101.721 30.1366C101.721 31.6058 100.532 32.7957 99.0624 32.7957C97.5933 32.7957 96.4033 31.6058 96.4033 30.1366C96.4033 28.6675 97.5933 27.4775 99.0624 27.4775C100.532 27.4775 101.721 28.6675 101.721 30.1366Z" fill="#AB9FF8"/>
<path fill-rule="evenodd" clip-rule="evenodd" d="M115.903 30.1366C115.903 31.6058 114.713 32.7957 113.244 32.7957C111.775 32.7957 110.585 31.6058 110.585 30.1366C110.585 28.6675 111.775 27.4775 113.244 27.4775C114.713 27.4775 115.903 28.6675 115.903 30.1366Z" fill="#AB9FF8"/>
<path fill-rule="evenodd" clip-rule="evenodd" d="M129.198 30.1366C129.198 31.6058 128.008 32.7957 126.539 32.7957C125.07 32.7957 123.88 31.6058 123.88 30.1366C123.88 28.6675 125.07 27.4775 126.539 27.4775C128.008 27.4775 129.198 28.6675 129.198 30.1366Z" fill="#AB9FF8"/>
<path fill-rule="evenodd" clip-rule="evenodd" d="M142.494 30.1366C142.494 31.6058 141.304 32.7957 139.835 32.7957C138.366 32.7957 137.176 31.6058 137.176 30.1366C137.176 28.6675 138.366 27.4775 139.835 27.4775C141.304 27.4775 142.494 28.6675 142.494 30.1366Z" fill="#AB9FF8"/>
<path fill-rule="evenodd" clip-rule="evenodd" d="M156.676 30.1366C156.676 31.6058 155.486 32.7957 154.017 32.7957C152.547 32.7957 151.357 31.6058 151.357 30.1366C151.357 28.6675 152.547 27.4775 154.017 27.4775C155.486 27.4775 156.676 28.6675 156.676 30.1366Z" fill="#AB9FF8"/>
<path fill-rule="evenodd" clip-rule="evenodd" d="M5.99396 43.4316C5.99396 44.9007 4.80402 46.0906 3.33487 46.0906C1.86572 46.0906 0.675781 44.9007 0.675781 43.4316C0.675781 41.9624 1.86572 40.7725 3.33487 40.7725C4.80402 40.7725 5.99396 41.9624 5.99396 43.4316Z" fill="#AB9FF8"/>
<path fill-rule="evenodd" clip-rule="evenodd" d="M20.1766 43.4316C20.1766 44.9007 18.9866 46.0906 17.5175 46.0906C16.0483 46.0906 14.8584 44.9007 14.8584 43.4316C14.8584 41.9624 16.0483 40.7725 17.5175 40.7725C18.9866 40.7725 20.1766 41.9624 20.1766 43.4316Z" fill="#AB9FF8"/>
<path fill-rule="evenodd" clip-rule="evenodd" d="M33.4715 43.4316C33.4715 44.9007 32.2816 46.0906 30.8124 46.0906C29.3433 46.0906 28.1533 44.9007 28.1533 43.4316C28.1533 41.9624 29.3433 40.7725 30.8124 40.7725C32.2816 40.7725 33.4715 41.9624 33.4715 43.4316Z" fill="#AB9FF8"/>
<path fill-rule="evenodd" clip-rule="evenodd" d="M46.7664 43.4316C46.7664 44.9007 45.5765 46.0906 44.1073 46.0906C42.6382 46.0906 41.4482 44.9007 41.4482 43.4316C41.4482 41.9624 42.6382 40.7725 44.1073 40.7725C45.5765 40.7725 46.7664 41.9624 46.7664 43.4316Z" fill="#AB9FF8"/>
<path fill-rule="evenodd" clip-rule="evenodd" d="M60.949 43.4316C60.949 44.9007 59.7591 46.0906 58.2899 46.0906C56.8208 46.0906 55.6309 44.9007 55.6309 43.4316C55.6309 41.9624 56.8208 40.7725 58.2899 40.7725C59.7591 40.7725 60.949 41.9624 60.949 43.4316Z" fill="#AB9FF8"/>
<path fill-rule="evenodd" clip-rule="evenodd" d="M74.244 43.4316C74.244 44.9007 73.054 46.0906 71.5849 46.0906C70.1157 46.0906 68.9258 44.9007 68.9258 43.4316C68.9258 41.9624 70.1157 40.7725 71.5849 40.7725C73.054 40.7725 74.244 41.9624 74.244 43.4316Z" fill="#AB9FF8"/>
<path fill-rule="evenodd" clip-rule="evenodd" d="M88.4256 43.4316C88.4256 44.9007 87.2357 46.0906 85.7665 46.0906C84.2974 46.0906 83.1074 44.9007 83.1074 43.4316C83.1074 41.9624 84.2974 40.7725 85.7665 40.7725C87.2357 40.7725 88.4256 41.9624 88.4256 43.4316Z" fill="#AB9FF8"/>
<path fill-rule="evenodd" clip-rule="evenodd" d="M101.721 43.4316C101.721 44.9007 100.532 46.0906 99.0624 46.0906C97.5933 46.0906 96.4033 44.9007 96.4033 43.4316C96.4033 41.9624 97.5933 40.7725 99.0624 40.7725C100.532 40.7725 101.721 41.9624 101.721 43.4316Z" fill="#AB9FF8"/>
<path fill-rule="evenodd" clip-rule="evenodd" d="M115.903 43.4316C115.903 44.9007 114.713 46.0906 113.244 46.0906C111.775 46.0906 110.585 44.9007 110.585 43.4316C110.585 41.9624 111.775 40.7725 113.244 40.7725C114.713 40.7725 115.903 41.9624 115.903 43.4316Z" fill="#AB9FF8"/>
<path fill-rule="evenodd" clip-rule="evenodd" d="M129.198 43.4316C129.198 44.9007 128.008 46.0906 126.539 46.0906C125.07 46.0906 123.88 44.9007 123.88 43.4316C123.88 41.9624 125.07 40.7725 126.539 40.7725C128.008 40.7725 129.198 41.9624 129.198 43.4316Z" fill="#AB9FF8"/>
<path fill-rule="evenodd" clip-rule="evenodd" d="M142.494 43.4316C142.494 44.9007 141.304 46.0906 139.835 46.0906C138.366 46.0906 137.176 44.9007 137.176 43.4316C137.176 41.9624 138.366 40.7725 139.835 40.7725C141.304 40.7725 142.494 41.9624 142.494 43.4316Z" fill="#AB9FF8"/>
<path fill-rule="evenodd" clip-rule="evenodd" d="M156.676 43.4316C156.676 44.9007 155.486 46.0906 154.017 46.0906C152.547 46.0906 151.357 44.9007 151.357 43.4316C151.357 41.9624 152.547 40.7725 154.017 40.7725C155.486 40.7725 156.676 41.9624 156.676 43.4316Z" fill="#AB9FF8"/>
<path fill-rule="evenodd" clip-rule="evenodd" d="M5.99396 57.6142C5.99396 59.0833 4.80402 60.2733 3.33487 60.2733C1.86572 60.2733 0.675781 59.0833 0.675781 57.6142C0.675781 56.145 1.86572 54.9551 3.33487 54.9551C4.80402 54.9551 5.99396 56.145 5.99396 57.6142Z" fill="#AB9FF8"/>
<path fill-rule="evenodd" clip-rule="evenodd" d="M20.1766 57.6142C20.1766 59.0833 18.9866 60.2733 17.5175 60.2733C16.0483 60.2733 14.8584 59.0833 14.8584 57.6142C14.8584 56.145 16.0483 54.9551 17.5175 54.9551C18.9866 54.9551 20.1766 56.145 20.1766 57.6142Z" fill="#AB9FF8"/>
<path fill-rule="evenodd" clip-rule="evenodd" d="M33.4715 57.6142C33.4715 59.0833 32.2816 60.2733 30.8124 60.2733C29.3433 60.2733 28.1533 59.0833 28.1533 57.6142C28.1533 56.145 29.3433 54.9551 30.8124 54.9551C32.2816 54.9551 33.4715 56.145 33.4715 57.6142Z" fill="#AB9FF8"/>
<path fill-rule="evenodd" clip-rule="evenodd" d="M46.7664 57.6142C46.7664 59.0833 45.5765 60.2733 44.1073 60.2733C42.6382 60.2733 41.4482 59.0833 41.4482 57.6142C41.4482 56.145 42.6382 54.9551 44.1073 54.9551C45.5765 54.9551 46.7664 56.145 46.7664 57.6142Z" fill="#AB9FF8"/>
<path fill-rule="evenodd" clip-rule="evenodd" d="M60.949 57.6142C60.949 59.0833 59.7591 60.2733 58.2899 60.2733C56.8208 60.2733 55.6309 59.0833 55.6309 57.6142C55.6309 56.145 56.8208 54.9551 58.2899 54.9551C59.7591 54.9551 60.949 56.145 60.949 57.6142Z" fill="#AB9FF8"/>
<path fill-rule="evenodd" clip-rule="evenodd" d="M74.244 57.6142C74.244 59.0833 73.054 60.2733 71.5849 60.2733C70.1157 60.2733 68.9258 59.0833 68.9258 57.6142C68.9258 56.145 70.1157 54.9551 71.5849 54.9551C73.054 54.9551 74.244 56.145 74.244 57.6142Z" fill="#AB9FF8"/>
<path fill-rule="evenodd" clip-rule="evenodd" d="M88.4256 57.6142C88.4256 59.0833 87.2357 60.2733 85.7665 60.2733C84.2974 60.2733 83.1074 59.0833 83.1074 57.6142C83.1074 56.145 84.2974 54.9551 85.7665 54.9551C87.2357 54.9551 88.4256 56.145 88.4256 57.6142Z" fill="#AB9FF8"/>
<path fill-rule="evenodd" clip-rule="evenodd" d="M101.721 57.6142C101.721 59.0833 100.532 60.2733 99.0624 60.2733C97.5933 60.2733 96.4033 59.0833 96.4033 57.6142C96.4033 56.145 97.5933 54.9551 99.0624 54.9551C100.532 54.9551 101.721 56.145 101.721 57.6142Z" fill="#AB9FF8"/>
<path fill-rule="evenodd" clip-rule="evenodd" d="M115.903 57.6142C115.903 59.0833 114.713 60.2733 113.244 60.2733C111.775 60.2733 110.585 59.0833 110.585 57.6142C110.585 56.145 111.775 54.9551 113.244 54.9551C114.713 54.9551 115.903 56.145 115.903 57.6142Z" fill="#AB9FF8"/>
<path fill-rule="evenodd" clip-rule="evenodd" d="M129.198 57.6142C129.198 59.0833 128.008 60.2733 126.539 60.2733C125.07 60.2733 123.88 59.0833 123.88 57.6142C123.88 56.145 125.07 54.9551 126.539 54.9551C128.008 54.9551 129.198 56.145 129.198 57.6142Z" fill="#AB9FF8"/>
<path fill-rule="evenodd" clip-rule="evenodd" d="M142.494 57.6142C142.494 59.0833 141.304 60.2733 139.835 60.2733C138.366 60.2733 137.176 59.0833 137.176 57.6142C137.176 56.145 138.366 54.9551 139.835 54.9551C141.304 54.9551 142.494 56.145 142.494 57.6142Z" fill="#AB9FF8"/>
<path fill-rule="evenodd" clip-rule="evenodd" d="M156.676 57.6142C156.676 59.0833 155.486 60.2733 154.017 60.2733C152.547 60.2733 151.357 59.0833 151.357 57.6142C151.357 56.145 152.547 54.9551 154.017 54.9551C155.486 54.9551 156.676 56.145 156.676 57.6142Z" fill="#AB9FF8"/>
<path fill-rule="evenodd" clip-rule="evenodd" d="M5.99396 70.9091C5.99396 72.3782 4.80402 73.5682 3.33487 73.5682C1.86572 73.5682 0.675781 72.3782 0.675781 70.9091C0.675781 69.4399 1.86572 68.25 3.33487 68.25C4.80402 68.25 5.99396 69.4399 5.99396 70.9091Z" fill="#AB9FF8"/>
<path fill-rule="evenodd" clip-rule="evenodd" d="M20.1766 70.9091C20.1766 72.3782 18.9866 73.5682 17.5175 73.5682C16.0483 73.5682 14.8584 72.3782 14.8584 70.9091C14.8584 69.4399 16.0483 68.25 17.5175 68.25C18.9866 68.25 20.1766 69.4399 20.1766 70.9091Z" fill="#AB9FF8"/>
<path fill-rule="evenodd" clip-rule="evenodd" d="M33.4715 70.9091C33.4715 72.3782 32.2816 73.5682 30.8124 73.5682C29.3433 73.5682 28.1533 72.3782 28.1533 70.9091C28.1533 69.4399 29.3433 68.25 30.8124 68.25C32.2816 68.25 33.4715 69.4399 33.4715 70.9091Z" fill="#AB9FF8"/>
<path fill-rule="evenodd" clip-rule="evenodd" d="M46.7664 70.9091C46.7664 72.3782 45.5765 73.5682 44.1073 73.5682C42.6382 73.5682 41.4482 72.3782 41.4482 70.9091C41.4482 69.4399 42.6382 68.25 44.1073 68.25C45.5765 68.25 46.7664 69.4399 46.7664 70.9091Z" fill="#AB9FF8"/>
<path fill-rule="evenodd" clip-rule="evenodd" d="M60.949 70.9091C60.949 72.3782 59.7591 73.5682 58.2899 73.5682C56.8208 73.5682 55.6309 72.3782 55.6309 70.9091C55.6309 69.4399 56.8208 68.25 58.2899 68.25C59.7591 68.25 60.949 69.4399 60.949 70.9091Z" fill="#AB9FF8"/>
<path fill-rule="evenodd" clip-rule="evenodd" d="M74.244 70.9091C74.244 72.3782 73.054 73.5682 71.5849 73.5682C70.1157 73.5682 68.9258 72.3782 68.9258 70.9091C68.9258 69.4399 70.1157 68.25 71.5849 68.25C73.054 68.25 74.244 69.4399 74.244 70.9091Z" fill="#AB9FF8"/>
<path fill-rule="evenodd" clip-rule="evenodd" d="M88.4256 70.9091C88.4256 72.3782 87.2357 73.5682 85.7665 73.5682C84.2974 73.5682 83.1074 72.3782 83.1074 70.9091C83.1074 69.4399 84.2974 68.25 85.7665 68.25C87.2357 68.25 88.4256 69.4399 88.4256 70.9091Z" fill="#AB9FF8"/>
<path fill-rule="evenodd" clip-rule="evenodd" d="M101.721 70.9091C101.721 72.3782 100.532 73.5682 99.0624 73.5682C97.5933 73.5682 96.4033 72.3782 96.4033 70.9091C96.4033 69.4399 97.5933 68.25 99.0624 68.25C100.532 68.25 101.721 69.4399 101.721 70.9091Z" fill="#AB9FF8"/>
<path fill-rule="evenodd" clip-rule="evenodd" d="M115.903 70.9091C115.903 72.3782 114.713 73.5682 113.244 73.5682C111.775 73.5682 110.585 72.3782 110.585 70.9091C110.585 69.4399 111.775 68.25 113.244 68.25C114.713 68.25 115.903 69.4399 115.903 70.9091Z" fill="#AB9FF8"/>
<path fill-rule="evenodd" clip-rule="evenodd" d="M129.198 70.9091C129.198 72.3782 128.008 73.5682 126.539 73.5682C125.07 73.5682 123.88 72.3782 123.88 70.9091C123.88 69.4399 125.07 68.25 126.539 68.25C128.008 68.25 129.198 69.4399 129.198 70.9091Z" fill="#AB9FF8"/>
<path fill-rule="evenodd" clip-rule="evenodd" d="M142.494 70.9091C142.494 72.3782 141.304 73.5682 139.835 73.5682C138.366 73.5682 137.176 72.3782 137.176 70.9091C137.176 69.4399 138.366 68.25 139.835 68.25C141.304 68.25 142.494 69.4399 142.494 70.9091Z" fill="#AB9FF8"/>
<path fill-rule="evenodd" clip-rule="evenodd" d="M156.676 70.9091C156.676 72.3782 155.486 73.5682 154.017 73.5682C152.547 73.5682 151.357 72.3782 151.357 70.9091C151.357 69.4399 152.547 68.25 154.017 68.25C155.486 68.25 156.676 69.4399 156.676 70.9091Z" fill="#AB9FF8"/>
<path fill-rule="evenodd" clip-rule="evenodd" d="M5.99396 85.0907C5.99396 86.5599 4.80402 87.7498 3.33487 87.7498C1.86572 87.7498 0.675781 86.5599 0.675781 85.0907C0.675781 83.6216 1.86572 82.4316 3.33487 82.4316C4.80402 82.4316 5.99396 83.6216 5.99396 85.0907Z" fill="#AB9FF8"/>
<path fill-rule="evenodd" clip-rule="evenodd" d="M20.1766 85.0907C20.1766 86.5599 18.9866 87.7498 17.5175 87.7498C16.0483 87.7498 14.8584 86.5599 14.8584 85.0907C14.8584 83.6216 16.0483 82.4316 17.5175 82.4316C18.9866 82.4316 20.1766 83.6216 20.1766 85.0907Z" fill="#AB9FF8"/>
<path fill-rule="evenodd" clip-rule="evenodd" d="M33.4715 85.0907C33.4715 86.5599 32.2816 87.7498 30.8124 87.7498C29.3433 87.7498 28.1533 86.5599 28.1533 85.0907C28.1533 83.6216 29.3433 82.4316 30.8124 82.4316C32.2816 82.4316 33.4715 83.6216 33.4715 85.0907Z" fill="#AB9FF8"/>
<path fill-rule="evenodd" clip-rule="evenodd" d="M46.7664 85.0907C46.7664 86.5599 45.5765 87.7498 44.1073 87.7498C42.6382 87.7498 41.4482 86.5599 41.4482 85.0907C41.4482 83.6216 42.6382 82.4316 44.1073 82.4316C45.5765 82.4316 46.7664 83.6216 46.7664 85.0907Z" fill="#AB9FF8"/>
<path fill-rule="evenodd" clip-rule="evenodd" d="M60.949 85.0907C60.949 86.5599 59.7591 87.7498 58.2899 87.7498C56.8208 87.7498 55.6309 86.5599 55.6309 85.0907C55.6309 83.6216 56.8208 82.4316 58.2899 82.4316C59.7591 82.4316 60.949 83.6216 60.949 85.0907Z" fill="#AB9FF8"/>
<path fill-rule="evenodd" clip-rule="evenodd" d="M74.244 85.0907C74.244 86.5599 73.054 87.7498 71.5849 87.7498C70.1157 87.7498 68.9258 86.5599 68.9258 85.0907C68.9258 83.6216 70.1157 82.4316 71.5849 82.4316C73.054 82.4316 74.244 83.6216 74.244 85.0907Z" fill="#AB9FF8"/>
<path fill-rule="evenodd" clip-rule="evenodd" d="M88.4256 85.0907C88.4256 86.5599 87.2357 87.7498 85.7665 87.7498C84.2974 87.7498 83.1074 86.5599 83.1074 85.0907C83.1074 83.6216 84.2974 82.4316 85.7665 82.4316C87.2357 82.4316 88.4256 83.6216 88.4256 85.0907Z" fill="#AB9FF8"/>
<path fill-rule="evenodd" clip-rule="evenodd" d="M101.721 85.0907C101.721 86.5599 100.532 87.7498 99.0624 87.7498C97.5933 87.7498 96.4033 86.5599 96.4033 85.0907C96.4033 83.6216 97.5933 82.4316 99.0624 82.4316C100.532 82.4316 101.721 83.6216 101.721 85.0907Z" fill="#AB9FF8"/>
<path fill-rule="evenodd" clip-rule="evenodd" d="M115.903 85.0907C115.903 86.5599 114.713 87.7498 113.244 87.7498C111.775 87.7498 110.585 86.5599 110.585 85.0907C110.585 83.6216 111.775 82.4316 113.244 82.4316C114.713 82.4316 115.903 83.6216 115.903 85.0907Z" fill="#AB9FF8"/>
<path fill-rule="evenodd" clip-rule="evenodd" d="M129.198 85.0907C129.198 86.5599 128.008 87.7498 126.539 87.7498C125.07 87.7498 123.88 86.5599 123.88 85.0907C123.88 83.6216 125.07 82.4316 126.539 82.4316C128.008 82.4316 129.198 83.6216 129.198 85.0907Z" fill="#AB9FF8"/>
<path fill-rule="evenodd" clip-rule="evenodd" d="M142.494 85.0907C142.494 86.5599 141.304 87.7498 139.835 87.7498C138.366 87.7498 137.176 86.5599 137.176 85.0907C137.176 83.6216 138.366 82.4316 139.835 82.4316C141.304 82.4316 142.494 83.6216 142.494 85.0907Z" fill="#AB9FF8"/>
<path fill-rule="evenodd" clip-rule="evenodd" d="M156.676 85.0907C156.676 86.5599 155.486 87.7498 154.017 87.7498C152.547 87.7498 151.357 86.5599 151.357 85.0907C151.357 83.6216 152.547 82.4316 154.017 82.4316C155.486 82.4316 156.676 83.6216 156.676 85.0907Z" fill="#AB9FF8"/>
<path fill-rule="evenodd" clip-rule="evenodd" d="M5.99396 98.3866C5.99396 99.8558 4.80402 101.046 3.33487 101.046C1.86572 101.046 0.675781 99.8558 0.675781 98.3866C0.675781 96.9175 1.86572 95.7275 3.33487 95.7275C4.80402 95.7275 5.99396 96.9175 5.99396 98.3866Z" fill="#AB9FF8"/>
<path fill-rule="evenodd" clip-rule="evenodd" d="M20.1766 98.3866C20.1766 99.8558 18.9866 101.046 17.5175 101.046C16.0483 101.046 14.8584 99.8558 14.8584 98.3866C14.8584 96.9175 16.0483 95.7275 17.5175 95.7275C18.9866 95.7275 20.1766 96.9175 20.1766 98.3866Z" fill="#AB9FF8"/>
<path fill-rule="evenodd" clip-rule="evenodd" d="M33.4715 98.3866C33.4715 99.8558 32.2816 101.046 30.8124 101.046C29.3433 101.046 28.1533 99.8558 28.1533 98.3866C28.1533 96.9175 29.3433 95.7275 30.8124 95.7275C32.2816 95.7275 33.4715 96.9175 33.4715 98.3866Z" fill="#AB9FF8"/>
<path fill-rule="evenodd" clip-rule="evenodd" d="M46.7664 98.3866C46.7664 99.8558 45.5765 101.046 44.1073 101.046C42.6382 101.046 41.4482 99.8558 41.4482 98.3866C41.4482 96.9175 42.6382 95.7275 44.1073 95.7275C45.5765 95.7275 46.7664 96.9175 46.7664 98.3866Z" fill="#AB9FF8"/>
<path fill-rule="evenodd" clip-rule="evenodd" d="M60.949 98.3866C60.949 99.8558 59.7591 101.046 58.2899 101.046C56.8208 101.046 55.6309 99.8558 55.6309 98.3866C55.6309 96.9175 56.8208 95.7275 58.2899 95.7275C59.7591 95.7275 60.949 96.9175 60.949 98.3866Z" fill="#AB9FF8"/>
<path fill-rule="evenodd" clip-rule="evenodd" d="M74.244 98.3866C74.244 99.8558 73.054 101.046 71.5849 101.046C70.1157 101.046 68.9258 99.8558 68.9258 98.3866C68.9258 96.9175 70.1157 95.7275 71.5849 95.7275C73.054 95.7275 74.244 96.9175 74.244 98.3866Z" fill="#AB9FF8"/>
<path fill-rule="evenodd" clip-rule="evenodd" d="M88.4256 98.3866C88.4256 99.8558 87.2357 101.046 85.7665 101.046C84.2974 101.046 83.1074 99.8558 83.1074 98.3866C83.1074 96.9175 84.2974 95.7275 85.7665 95.7275C87.2357 95.7275 88.4256 96.9175 88.4256 98.3866Z" fill="#AB9FF8"/>
<path fill-rule="evenodd" clip-rule="evenodd" d="M101.721 98.3866C101.721 99.8558 100.532 101.046 99.0624 101.046C97.5933 101.046 96.4033 99.8558 96.4033 98.3866C96.4033 96.9175 97.5933 95.7275 99.0624 95.7275C100.532 95.7275 101.721 96.9175 101.721 98.3866Z" fill="#AB9FF8"/>
<path fill-rule="evenodd" clip-rule="evenodd" d="M115.903 98.3866C115.903 99.8558 114.713 101.046 113.244 101.046C111.775 101.046 110.585 99.8558 110.585 98.3866C110.585 96.9175 111.775 95.7275 113.244 95.7275C114.713 95.7275 115.903 96.9175 115.903 98.3866Z" fill="#AB9FF8"/>
<path fill-rule="evenodd" clip-rule="evenodd" d="M129.198 98.3866C129.198 99.8558 128.008 101.046 126.539 101.046C125.07 101.046 123.88 99.8558 123.88 98.3866C123.88 96.9175 125.07 95.7275 126.539 95.7275C128.008 95.7275 129.198 96.9175 129.198 98.3866Z" fill="#AB9FF8"/>
<path fill-rule="evenodd" clip-rule="evenodd" d="M142.494 98.3866C142.494 99.8558 141.304 101.046 139.835 101.046C138.366 101.046 137.176 99.8558 137.176 98.3866C137.176 96.9175 138.366 95.7275 139.835 95.7275C141.304 95.7275 142.494 96.9175 142.494 98.3866Z" fill="#AB9FF8"/>
<path fill-rule="evenodd" clip-rule="evenodd" d="M156.676 98.3866C156.676 99.8558 155.486 101.046 154.017 101.046C152.547 101.046 151.357 99.8558 151.357 98.3866C151.357 96.9175 152.547 95.7275 154.017 95.7275C155.486 95.7275 156.676 96.9175 156.676 98.3866Z" fill="#AB9FF8"/>
<path fill-rule="evenodd" clip-rule="evenodd" d="M5.99396 111.682C5.99396 113.151 4.80402 114.341 3.33487 114.341C1.86572 114.341 0.675781 113.151 0.675781 111.682C0.675781 110.212 1.86572 109.022 3.33487 109.022C4.80402 109.022 5.99396 110.212 5.99396 111.682Z" fill="#AB9FF8"/>
<path fill-rule="evenodd" clip-rule="evenodd" d="M20.1766 111.682C20.1766 113.151 18.9866 114.341 17.5175 114.341C16.0483 114.341 14.8584 113.151 14.8584 111.682C14.8584 110.212 16.0483 109.022 17.5175 109.022C18.9866 109.022 20.1766 110.212 20.1766 111.682Z" fill="#AB9FF8"/>
<path fill-rule="evenodd" clip-rule="evenodd" d="M33.4715 111.682C33.4715 113.151 32.2816 114.341 30.8124 114.341C29.3433 114.341 28.1533 113.151 28.1533 111.682C28.1533 110.212 29.3433 109.022 30.8124 109.022C32.2816 109.022 33.4715 110.212 33.4715 111.682Z" fill="#AB9FF8"/>
<path fill-rule="evenodd" clip-rule="evenodd" d="M46.7664 111.682C46.7664 113.151 45.5765 114.341 44.1073 114.341C42.6382 114.341 41.4482 113.151 41.4482 111.682C41.4482 110.212 42.6382 109.022 44.1073 109.022C45.5765 109.022 46.7664 110.212 46.7664 111.682Z" fill="#AB9FF8"/>
<path fill-rule="evenodd" clip-rule="evenodd" d="M60.949 111.682C60.949 113.151 59.7591 114.341 58.2899 114.341C56.8208 114.341 55.6309 113.151 55.6309 111.682C55.6309 110.212 56.8208 109.022 58.2899 109.022C59.7591 109.022 60.949 110.212 60.949 111.682Z" fill="#AB9FF8"/>
<path fill-rule="evenodd" clip-rule="evenodd" d="M74.244 111.682C74.244 113.151 73.054 114.341 71.5849 114.341C70.1157 114.341 68.9258 113.151 68.9258 111.682C68.9258 110.212 70.1157 109.022 71.5849 109.022C73.054 109.022 74.244 110.212 74.244 111.682Z" fill="#AB9FF8"/>
<path fill-rule="evenodd" clip-rule="evenodd" d="M88.4256 111.682C88.4256 113.151 87.2357 114.341 85.7665 114.341C84.2974 114.341 83.1074 113.151 83.1074 111.682C83.1074 110.212 84.2974 109.022 85.7665 109.022C87.2357 109.022 88.4256 110.212 88.4256 111.682Z" fill="#AB9FF8"/>
<path fill-rule="evenodd" clip-rule="evenodd" d="M101.721 111.682C101.721 113.151 100.532 114.341 99.0624 114.341C97.5933 114.341 96.4033 113.151 96.4033 111.682C96.4033 110.212 97.5933 109.022 99.0624 109.022C100.532 109.022 101.721 110.212 101.721 111.682Z" fill="#AB9FF8"/>
<path fill-rule="evenodd" clip-rule="evenodd" d="M115.903 111.682C115.903 113.151 114.713 114.341 113.244 114.341C111.775 114.341 110.585 113.151 110.585 111.682C110.585 110.212 111.775 109.022 113.244 109.022C114.713 109.022 115.903 110.212 115.903 111.682Z" fill="#AB9FF8"/>
<path fill-rule="evenodd" clip-rule="evenodd" d="M129.198 111.682C129.198 113.151 128.008 114.341 126.539 114.341C125.07 114.341 123.88 113.151 123.88 111.682C123.88 110.212 125.07 109.022 126.539 109.022C128.008 109.022 129.198 110.212 129.198 111.682Z" fill="#AB9FF8"/>
<path fill-rule="evenodd" clip-rule="evenodd" d="M142.494 111.682C142.494 113.151 141.304 114.341 139.835 114.341C138.366 114.341 137.176 113.151 137.176 111.682C137.176 110.212 138.366 109.022 139.835 109.022C141.304 109.022 142.494 110.212 142.494 111.682Z" fill="#AB9FF8"/>
<path fill-rule="evenodd" clip-rule="evenodd" d="M156.676 111.682C156.676 113.151 155.486 114.341 154.017 114.341C152.547 114.341 151.357 113.151 151.357 111.682C151.357 110.212 152.547 109.022 154.017 109.022C155.486 109.022 156.676 110.212 156.676 111.682Z" fill="#AB9FF8"/>
<path fill-rule="evenodd" clip-rule="evenodd" d="M5.99396 125.863C5.99396 127.332 4.80402 128.522 3.33487 128.522C1.86572 128.522 0.675781 127.332 0.675781 125.863C0.675781 124.394 1.86572 123.204 3.33487 123.204C4.80402 123.204 5.99396 124.394 5.99396 125.863Z" fill="#AB9FF8"/>
<path fill-rule="evenodd" clip-rule="evenodd" d="M20.1766 125.863C20.1766 127.332 18.9866 128.522 17.5175 128.522C16.0483 128.522 14.8584 127.332 14.8584 125.863C14.8584 124.394 16.0483 123.204 17.5175 123.204C18.9866 123.204 20.1766 124.394 20.1766 125.863Z" fill="#AB9FF8"/>
<path fill-rule="evenodd" clip-rule="evenodd" d="M33.4715 125.863C33.4715 127.332 32.2816 128.522 30.8124 128.522C29.3433 128.522 28.1533 127.332 28.1533 125.863C28.1533 124.394 29.3433 123.204 30.8124 123.204C32.2816 123.204 33.4715 124.394 33.4715 125.863Z" fill="#AB9FF8"/>
<path fill-rule="evenodd" clip-rule="evenodd" d="M46.7664 125.863C46.7664 127.332 45.5765 128.522 44.1073 128.522C42.6382 128.522 41.4482 127.332 41.4482 125.863C41.4482 124.394 42.6382 123.204 44.1073 123.204C45.5765 123.204 46.7664 124.394 46.7664 125.863Z" fill="#AB9FF8"/>
<path fill-rule="evenodd" clip-rule="evenodd" d="M60.949 125.863C60.949 127.332 59.7591 128.522 58.2899 128.522C56.8208 128.522 55.6309 127.332 55.6309 125.863C55.6309 124.394 56.8208 123.204 58.2899 123.204C59.7591 123.204 60.949 124.394 60.949 125.863Z" fill="#AB9FF8"/>
<path fill-rule="evenodd" clip-rule="evenodd" d="M74.244 125.863C74.244 127.332 73.054 128.522 71.5849 128.522C70.1157 128.522 68.9258 127.332 68.9258 125.863C68.9258 124.394 70.1157 123.204 71.5849 123.204C73.054 123.204 74.244 124.394 74.244 125.863Z" fill="#AB9FF8"/>
<path fill-rule="evenodd" clip-rule="evenodd" d="M88.4256 125.863C88.4256 127.332 87.2357 128.522 85.7665 128.522C84.2974 128.522 83.1074 127.332 83.1074 125.863C83.1074 124.394 84.2974 123.204 85.7665 123.204C87.2357 123.204 88.4256 124.394 88.4256 125.863Z" fill="#AB9FF8"/>
<path fill-rule="evenodd" clip-rule="evenodd" d="M101.721 125.863C101.721 127.332 100.532 128.522 99.0624 128.522C97.5933 128.522 96.4033 127.332 96.4033 125.863C96.4033 124.394 97.5933 123.204 99.0624 123.204C100.532 123.204 101.721 124.394 101.721 125.863Z" fill="#AB9FF8"/>
<path fill-rule="evenodd" clip-rule="evenodd" d="M115.903 125.863C115.903 127.332 114.713 128.522 113.244 128.522C111.775 128.522 110.585 127.332 110.585 125.863C110.585 124.394 111.775 123.204 113.244 123.204C114.713 123.204 115.903 124.394 115.903 125.863Z" fill="#AB9FF8"/>
<path fill-rule="evenodd" clip-rule="evenodd" d="M129.198 125.863C129.198 127.332 128.008 128.522 126.539 128.522C125.07 128.522 123.88 127.332 123.88 125.863C123.88 124.394 125.07 123.204 126.539 123.204C128.008 123.204 129.198 124.394 129.198 125.863Z" fill="#AB9FF8"/>
<path fill-rule="evenodd" clip-rule="evenodd" d="M142.494 125.863C142.494 127.332 141.304 128.522 139.835 128.522C138.366 128.522 137.176 127.332 137.176 125.863C137.176 124.394 138.366 123.204 139.835 123.204C141.304 123.204 142.494 124.394 142.494 125.863Z" fill="#AB9FF8"/>
<path fill-rule="evenodd" clip-rule="evenodd" d="M156.676 125.863C156.676 127.332 155.486 128.522 154.017 128.522C152.547 128.522 151.357 127.332 151.357 125.863C151.357 124.394 152.547 123.204 154.017 123.204C155.486 123.204 156.676 124.394 156.676 125.863Z" fill="#AB9FF8"/>
<path fill-rule="evenodd" clip-rule="evenodd" d="M5.99396 139.159C5.99396 140.628 4.80402 141.818 3.33487 141.818C1.86572 141.818 0.675781 140.628 0.675781 139.159C0.675781 137.69 1.86572 136.5 3.33487 136.5C4.80402 136.5 5.99396 137.69 5.99396 139.159Z" fill="#AB9FF8"/>
<path fill-rule="evenodd" clip-rule="evenodd" d="M20.1766 139.159C20.1766 140.628 18.9866 141.818 17.5175 141.818C16.0483 141.818 14.8584 140.628 14.8584 139.159C14.8584 137.69 16.0483 136.5 17.5175 136.5C18.9866 136.5 20.1766 137.69 20.1766 139.159Z" fill="#AB9FF8"/>
<path fill-rule="evenodd" clip-rule="evenodd" d="M33.4715 139.159C33.4715 140.628 32.2816 141.818 30.8124 141.818C29.3433 141.818 28.1533 140.628 28.1533 139.159C28.1533 137.69 29.3433 136.5 30.8124 136.5C32.2816 136.5 33.4715 137.69 33.4715 139.159Z" fill="#AB9FF8"/>
<path fill-rule="evenodd" clip-rule="evenodd" d="M46.7664 139.159C46.7664 140.628 45.5765 141.818 44.1073 141.818C42.6382 141.818 41.4482 140.628 41.4482 139.159C41.4482 137.69 42.6382 136.5 44.1073 136.5C45.5765 136.5 46.7664 137.69 46.7664 139.159Z" fill="#AB9FF8"/>
<path fill-rule="evenodd" clip-rule="evenodd" d="M60.949 139.159C60.949 140.628 59.7591 141.818 58.2899 141.818C56.8208 141.818 55.6309 140.628 55.6309 139.159C55.6309 137.69 56.8208 136.5 58.2899 136.5C59.7591 136.5 60.949 137.69 60.949 139.159Z" fill="#AB9FF8"/>
<path fill-rule="evenodd" clip-rule="evenodd" d="M74.244 139.159C74.244 140.628 73.054 141.818 71.5849 141.818C70.1157 141.818 68.9258 140.628 68.9258 139.159C68.9258 137.69 70.1157 136.5 71.5849 136.5C73.054 136.5 74.244 137.69 74.244 139.159Z" fill="#AB9FF8"/>
<path fill-rule="evenodd" clip-rule="evenodd" d="M88.4256 139.159C88.4256 140.628 87.2357 141.818 85.7665 141.818C84.2974 141.818 83.1074 140.628 83.1074 139.159C83.1074 137.69 84.2974 136.5 85.7665 136.5C87.2357 136.5 88.4256 137.69 88.4256 139.159Z" fill="#AB9FF8"/>
<path fill-rule="evenodd" clip-rule="evenodd" d="M101.721 139.159C101.721 140.628 100.532 141.818 99.0624 141.818C97.5933 141.818 96.4033 140.628 96.4033 139.159C96.4033 137.69 97.5933 136.5 99.0624 136.5C100.532 136.5 101.721 137.69 101.721 139.159Z" fill="#AB9FF8"/>
<path fill-rule="evenodd" clip-rule="evenodd" d="M115.903 139.159C115.903 140.628 114.713 141.818 113.244 141.818C111.775 141.818 110.585 140.628 110.585 139.159C110.585 137.69 111.775 136.5 113.244 136.5C114.713 136.5 115.903 137.69 115.903 139.159Z" fill="#AB9FF8"/>
<path fill-rule="evenodd" clip-rule="evenodd" d="M129.198 139.159C129.198 140.628 128.008 141.818 126.539 141.818C125.07 141.818 123.88 140.628 123.88 139.159C123.88 137.69 125.07 136.5 126.539 136.5C128.008 136.5 129.198 137.69 129.198 139.159Z" fill="#AB9FF8"/>
<path fill-rule="evenodd" clip-rule="evenodd" d="M142.494 139.159C142.494 140.628 141.304 141.818 139.835 141.818C138.366 141.818 137.176 140.628 137.176 139.159C137.176 137.69 138.366 136.5 139.835 136.5C141.304 136.5 142.494 137.69 142.494 139.159Z" fill="#AB9FF8"/>
<path fill-rule="evenodd" clip-rule="evenodd" d="M156.676 139.159C156.676 140.628 155.486 141.818 154.017 141.818C152.547 141.818 151.357 140.628 151.357 139.159C151.357 137.69 152.547 136.5 154.017 136.5C155.486 136.5 156.676 137.69 156.676 139.159Z" fill="#AB9FF8"/>
<path fill-rule="evenodd" clip-rule="evenodd" d="M5.99396 153.341C5.99396 154.81 4.80402 156 3.33487 156C1.86572 156 0.675781 154.81 0.675781 153.341C0.675781 151.872 1.86572 150.682 3.33487 150.682C4.80402 150.682 5.99396 151.872 5.99396 153.341Z" fill="#AB9FF8"/>
<path fill-rule="evenodd" clip-rule="evenodd" d="M20.1766 153.341C20.1766 154.81 18.9866 156 17.5175 156C16.0483 156 14.8584 154.81 14.8584 153.341C14.8584 151.872 16.0483 150.682 17.5175 150.682C18.9866 150.682 20.1766 151.872 20.1766 153.341Z" fill="#AB9FF8"/>
<path fill-rule="evenodd" clip-rule="evenodd" d="M33.4715 153.341C33.4715 154.81 32.2816 156 30.8124 156C29.3433 156 28.1533 154.81 28.1533 153.341C28.1533 151.872 29.3433 150.682 30.8124 150.682C32.2816 150.682 33.4715 151.872 33.4715 153.341Z" fill="#AB9FF8"/>
<path fill-rule="evenodd" clip-rule="evenodd" d="M46.7664 153.341C46.7664 154.81 45.5765 156 44.1073 156C42.6382 156 41.4482 154.81 41.4482 153.341C41.4482 151.872 42.6382 150.682 44.1073 150.682C45.5765 150.682 46.7664 151.872 46.7664 153.341Z" fill="#AB9FF8"/>
<path fill-rule="evenodd" clip-rule="evenodd" d="M60.949 153.341C60.949 154.81 59.7591 156 58.2899 156C56.8208 156 55.6309 154.81 55.6309 153.341C55.6309 151.872 56.8208 150.682 58.2899 150.682C59.7591 150.682 60.949 151.872 60.949 153.341Z" fill="#AB9FF8"/>
<path fill-rule="evenodd" clip-rule="evenodd" d="M74.244 153.341C74.244 154.81 73.054 156 71.5849 156C70.1157 156 68.9258 154.81 68.9258 153.341C68.9258 151.872 70.1157 150.682 71.5849 150.682C73.054 150.682 74.244 151.872 74.244 153.341Z" fill="#AB9FF8"/>
<path fill-rule="evenodd" clip-rule="evenodd" d="M88.4256 153.341C88.4256 154.81 87.2357 156 85.7665 156C84.2974 156 83.1074 154.81 83.1074 153.341C83.1074 151.872 84.2974 150.682 85.7665 150.682C87.2357 150.682 88.4256 151.872 88.4256 153.341Z" fill="#AB9FF8"/>
<path fill-rule="evenodd" clip-rule="evenodd" d="M101.721 153.341C101.721 154.81 100.532 156 99.0624 156C97.5933 156 96.4033 154.81 96.4033 153.341C96.4033 151.872 97.5933 150.682 99.0624 150.682C100.532 150.682 101.721 151.872 101.721 153.341Z" fill="#AB9FF8"/>
<path fill-rule="evenodd" clip-rule="evenodd" d="M115.903 153.341C115.903 154.81 114.713 156 113.244 156C111.775 156 110.585 154.81 110.585 153.341C110.585 151.872 111.775 150.682 113.244 150.682C114.713 150.682 115.903 151.872 115.903 153.341Z" fill="#AB9FF8"/>
<path fill-rule="evenodd" clip-rule="evenodd" d="M129.198 153.341C129.198 154.81 128.008 156 126.539 156C125.07 156 123.88 154.81 123.88 153.341C123.88 151.872 125.07 150.682 126.539 150.682C128.008 150.682 129.198 151.872 129.198 153.341Z" fill="#AB9FF8"/>
<path fill-rule="evenodd" clip-rule="evenodd" d="M142.494 153.341C142.494 154.81 141.304 156 139.835 156C138.366 156 137.176 154.81 137.176 153.341C137.176 151.872 138.366 150.682 139.835 150.682C141.304 150.682 142.494 151.872 142.494 153.341Z" fill="#AB9FF8"/>
<path fill-rule="evenodd" clip-rule="evenodd" d="M156.676 153.341C156.676 154.81 155.486 156 154.017 156C152.547 156 151.357 154.81 151.357 153.341C151.357 151.872 152.547 150.682 154.017 150.682C155.486 150.682 156.676 151.872 156.676 153.341Z" fill="#AB9FF8"/>
<path fill-rule="evenodd" clip-rule="evenodd" d="M5.99396 166.636C5.99396 168.105 4.80402 169.295 3.33487 169.295C1.86572 169.295 0.675781 168.105 0.675781 166.636C0.675781 165.167 1.86572 163.977 3.33487 163.977C4.80402 163.977 5.99396 165.167 5.99396 166.636Z" fill="#AB9FF8"/>
<path fill-rule="evenodd" clip-rule="evenodd" d="M20.1766 166.636C20.1766 168.105 18.9866 169.295 17.5175 169.295C16.0483 169.295 14.8584 168.105 14.8584 166.636C14.8584 165.167 16.0483 163.977 17.5175 163.977C18.9866 163.977 20.1766 165.167 20.1766 166.636Z" fill="#AB9FF8"/>
<path fill-rule="evenodd" clip-rule="evenodd" d="M33.4715 166.636C33.4715 168.105 32.2816 169.295 30.8124 169.295C29.3433 169.295 28.1533 168.105 28.1533 166.636C28.1533 165.167 29.3433 163.977 30.8124 163.977C32.2816 163.977 33.4715 165.167 33.4715 166.636Z" fill="#AB9FF8"/>
<path fill-rule="evenodd" clip-rule="evenodd" d="M46.7664 166.636C46.7664 168.105 45.5765 169.295 44.1073 169.295C42.6382 169.295 41.4482 168.105 41.4482 166.636C41.4482 165.167 42.6382 163.977 44.1073 163.977C45.5765 163.977 46.7664 165.167 46.7664 166.636Z" fill="#AB9FF8"/>
<path fill-rule="evenodd" clip-rule="evenodd" d="M60.949 166.636C60.949 168.105 59.7591 169.295 58.2899 169.295C56.8208 169.295 55.6309 168.105 55.6309 166.636C55.6309 165.167 56.8208 163.977 58.2899 163.977C59.7591 163.977 60.949 165.167 60.949 166.636Z" fill="#AB9FF8"/>
<path fill-rule="evenodd" clip-rule="evenodd" d="M74.244 166.636C74.244 168.105 73.054 169.295 71.5849 169.295C70.1157 169.295 68.9258 168.105 68.9258 166.636C68.9258 165.167 70.1157 163.977 71.5849 163.977C73.054 163.977 74.244 165.167 74.244 166.636Z" fill="#AB9FF8"/>
<path fill-rule="evenodd" clip-rule="evenodd" d="M88.4256 166.636C88.4256 168.105 87.2357 169.295 85.7665 169.295C84.2974 169.295 83.1074 168.105 83.1074 166.636C83.1074 165.167 84.2974 163.977 85.7665 163.977C87.2357 163.977 88.4256 165.167 88.4256 166.636Z" fill="#AB9FF8"/>
<path fill-rule="evenodd" clip-rule="evenodd" d="M101.721 166.636C101.721 168.105 100.532 169.295 99.0624 169.295C97.5933 169.295 96.4033 168.105 96.4033 166.636C96.4033 165.167 97.5933 163.977 99.0624 163.977C100.532 163.977 101.721 165.167 101.721 166.636Z" fill="#AB9FF8"/>
<path fill-rule="evenodd" clip-rule="evenodd" d="M115.903 166.636C115.903 168.105 114.713 169.295 113.244 169.295C111.775 169.295 110.585 168.105 110.585 166.636C110.585 165.167 111.775 163.977 113.244 163.977C114.713 163.977 115.903 165.167 115.903 166.636Z" fill="#AB9FF8"/>
<path fill-rule="evenodd" clip-rule="evenodd" d="M129.198 166.636C129.198 168.105 128.008 169.295 126.539 169.295C125.07 169.295 123.88 168.105 123.88 166.636C123.88 165.167 125.07 163.977 126.539 163.977C128.008 163.977 129.198 165.167 129.198 166.636Z" fill="#AB9FF8"/>
<path fill-rule="evenodd" clip-rule="evenodd" d="M142.494 166.636C142.494 168.105 141.304 169.295 139.835 169.295C138.366 169.295 137.176 168.105 137.176 166.636C137.176 165.167 138.366 163.977 139.835 163.977C141.304 163.977 142.494 165.167 142.494 166.636Z" fill="#AB9FF8"/>
<path fill-rule="evenodd" clip-rule="evenodd" d="M156.676 166.636C156.676 168.105 155.486 169.295 154.017 169.295C152.547 169.295 151.357 168.105 151.357 166.636C151.357 165.167 152.547 163.977 154.017 163.977C155.486 163.977 156.676 165.167 156.676 166.636Z" fill="#AB9FF8"/>
<path fill-rule="evenodd" clip-rule="evenodd" d="M20.1766 2.65909C20.1766 4.12824 18.9866 5.31818 17.5175 5.31818C16.0483 5.31818 14.8584 4.12824 14.8584 2.65909C14.8584 1.18994 16.0483 0 17.5175 0C18.9866 0 20.1766 1.18994 20.1766 2.65909Z" fill="#AB9FF8"/>
<path fill-rule="evenodd" clip-rule="evenodd" d="M33.4715 2.65909C33.4715 4.12824 32.2816 5.31818 30.8124 5.31818C29.3433 5.31818 28.1533 4.12824 28.1533 2.65909C28.1533 1.18994 29.3433 0 30.8124 0C32.2816 0 33.4715 1.18994 33.4715 2.65909Z" fill="#AB9FF8"/>
<path fill-rule="evenodd" clip-rule="evenodd" d="M46.7664 2.65909C46.7664 4.12824 45.5765 5.31818 44.1073 5.31818C42.6382 5.31818 41.4482 4.12824 41.4482 2.65909C41.4482 1.18994 42.6382 0 44.1073 0C45.5765 0 46.7664 1.18994 46.7664 2.65909Z" fill="#AB9FF8"/>
<path fill-rule="evenodd" clip-rule="evenodd" d="M60.949 2.65909C60.949 4.12824 59.7591 5.31818 58.2899 5.31818C56.8208 5.31818 55.6309 4.12824 55.6309 2.65909C55.6309 1.18994 56.8208 0 58.2899 0C59.7591 0 60.949 1.18994 60.949 2.65909Z" fill="#AB9FF8"/>
<path fill-rule="evenodd" clip-rule="evenodd" d="M74.244 2.65909C74.244 4.12824 73.054 5.31818 71.5849 5.31818C70.1157 5.31818 68.9258 4.12824 68.9258 2.65909C68.9258 1.18994 70.1157 0 71.5849 0C73.054 0 74.244 1.18994 74.244 2.65909Z" fill="#AB9FF8"/>
<path fill-rule="evenodd" clip-rule="evenodd" d="M88.4256 2.65909C88.4256 4.12824 87.2357 5.31818 85.7665 5.31818C84.2974 5.31818 83.1074 4.12824 83.1074 2.65909C83.1074 1.18994 84.2974 0 85.7665 0C87.2357 0 88.4256 1.18994 88.4256 2.65909Z" fill="#AB9FF8"/>
<path fill-rule="evenodd" clip-rule="evenodd" d="M101.721 2.65909C101.721 4.12824 100.532 5.31818 99.0624 5.31818C97.5933 5.31818 96.4033 4.12824 96.4033 2.65909C96.4033 1.18994 97.5933 0 99.0624 0C100.532 0 101.721 1.18994 101.721 2.65909Z" fill="#AB9FF8"/>
<path fill-rule="evenodd" clip-rule="evenodd" d="M115.903 2.65909C115.903 4.12824 114.713 5.31818 113.244 5.31818C111.775 5.31818 110.585 4.12824 110.585 2.65909C110.585 1.18994 111.775 0 113.244 0C114.713 0 115.903 1.18994 115.903 2.65909Z" fill="#AB9FF8"/>
<path fill-rule="evenodd" clip-rule="evenodd" d="M129.198 2.65909C129.198 4.12824 128.008 5.31818 126.539 5.31818C125.07 5.31818 123.88 4.12824 123.88 2.65909C123.88 1.18994 125.07 0 126.539 0C128.008 0 129.198 1.18994 129.198 2.65909Z" fill="#AB9FF8"/>
<path fill-rule="evenodd" clip-rule="evenodd" d="M142.494 2.65909C142.494 4.12824 141.304 5.31818 139.835 5.31818C138.366 5.31818 137.176 4.12824 137.176 2.65909C137.176 1.18994 138.366 0 139.835 0C141.304 0 142.494 1.18994 142.494 2.65909Z" fill="#AB9FF8"/>
<path fill-rule="evenodd" clip-rule="evenodd" d="M156.676 2.65909C156.676 4.12824 155.486 5.31818 154.017 5.31818C152.547 5.31818 151.357 4.12824 151.357 2.65909C151.357 1.18994 152.547 0 154.017 0C155.486 0 156.676 1.18994 156.676 2.65909Z" fill="#AB9FF8"/>
</svg>
