<svg width="256" height="209" viewBox="0 0 256 209" fill="none" xmlns="http://www.w3.org/2000/svg">
<path d="M28.7547 65V21.8H21.7707V12.512H39.1227V65H28.7547ZM51.8166 12.368H84.3607V21.224H61.0326V33.536C62.9766 31.16 66.9367 29.288 71.3286 29.288C83.5686 29.288 87.7447 38.504 87.7447 46.64C87.7447 57.368 81.5526 65 69.6007 65C58.2966 65 51.8166 58.736 50.9526 50.168H60.7446C61.6086 53.84 64.5606 56.504 69.4567 56.504C75.3606 56.504 78.0246 52.328 78.0246 46.784C78.0246 40.88 75.0727 37.64 69.3846 37.64C65.2086 37.64 62.5446 39.944 61.4646 43.184H51.8166V12.368Z" fill="#AB9FF8"/>
<path d="M231.089 66.9881C237.277 82.6225 231.802 101.482 217.304 119.483C202.839 137.445 179.584 154.268 150.942 165.603C122.3 176.939 93.8313 180.587 70.9918 177.39C48.1016 174.185 31.203 164.181 25.0154 148.546C18.8277 132.912 24.3025 114.052 38.8002 96.0508C53.2658 78.0895 76.5203 61.2666 105.162 49.9309C133.804 38.5953 162.273 34.9475 185.113 38.1446C208.003 41.3488 224.901 51.3538 231.089 66.9881Z" stroke="#231D70" stroke-width="3"/>
<path d="M91.7067 104.347L93.446 103.371L98.6853 106.497L98.7943 106.436L98.8571 100.336L100.596 99.3598L100.373 107.59L102.608 111.574L101.082 112.43L98.8468 108.446L91.7067 104.347ZM109.73 107.78C108.98 108.201 108.244 108.403 107.522 108.387C106.802 108.365 106.131 108.144 105.509 107.725C104.889 107.3 104.357 106.692 103.914 105.903C103.476 105.123 103.236 104.355 103.193 103.597C103.154 102.837 103.303 102.143 103.641 101.515C103.982 100.885 104.507 100.371 105.214 99.9748C105.643 99.7338 106.099 99.5713 106.582 99.4873C107.065 99.4032 107.551 99.4233 108.042 99.5474C108.533 99.6716 109.007 99.9245 109.465 100.306C109.921 100.685 110.342 101.219 110.729 101.91L111.024 102.435L104.974 105.829L104.351 104.72L108.949 102.14C108.731 101.75 108.458 101.449 108.131 101.237C107.801 101.022 107.444 100.908 107.058 100.894C106.676 100.879 106.293 100.978 105.91 101.193C105.494 101.427 105.188 101.733 104.992 102.112C104.798 102.486 104.709 102.884 104.724 103.305C104.74 103.722 104.855 104.12 105.068 104.5L105.555 105.367C105.84 105.876 106.172 106.258 106.55 106.515C106.932 106.77 107.338 106.901 107.767 106.907C108.195 106.911 108.625 106.791 109.058 106.548C109.339 106.391 109.572 106.207 109.759 105.998C109.944 105.786 110.075 105.552 110.153 105.295C110.231 105.039 110.247 104.767 110.203 104.479L111.747 103.945C111.867 104.421 111.868 104.895 111.751 105.369C111.636 105.838 111.409 106.28 111.069 106.696C110.731 107.108 110.285 107.469 109.73 107.78ZM116.862 103.798C116.38 104.069 115.894 104.224 115.404 104.265C114.912 104.302 114.456 104.212 114.035 103.997C113.618 103.779 113.269 103.421 112.989 102.922C112.749 102.493 112.633 102.093 112.642 101.723C112.652 101.352 112.752 101.008 112.942 100.688C113.132 100.369 113.377 100.071 113.677 99.7933C113.978 99.5161 114.296 99.2551 114.632 99.0101C115.058 98.7015 115.404 98.451 115.67 98.2585C115.933 98.0628 116.108 97.8892 116.192 97.7376C116.276 97.586 116.268 97.4211 116.168 97.2427L116.149 97.208C115.906 96.7752 115.596 96.5085 115.218 96.4078C114.843 96.3052 114.416 96.3883 113.937 96.6571C113.439 96.9369 113.108 97.2681 112.944 97.6507C112.783 98.0281 112.722 98.3812 112.763 98.71L111.193 99.174C111.099 98.6189 111.13 98.1103 111.288 97.6483C111.447 97.1811 111.699 96.7663 112.043 96.4039C112.385 96.0383 112.786 95.7266 113.245 95.469C113.549 95.2985 113.891 95.1541 114.272 95.0359C114.655 94.9125 115.047 94.8616 115.45 94.8831C115.857 94.9027 116.254 95.0339 116.642 95.2766C117.028 95.516 117.377 95.9131 117.688 96.4681L120.524 101.522L119.077 102.334L118.493 101.294L118.434 101.327C118.445 101.572 118.407 101.841 118.319 102.134C118.232 102.426 118.072 102.718 117.84 103.009C117.608 103.3 117.282 103.563 116.862 103.798ZM116.517 102.428C116.927 102.198 117.232 101.921 117.431 101.596C117.635 101.269 117.739 100.933 117.745 100.587C117.752 100.235 117.671 99.9091 117.502 99.6085L116.952 98.6274C116.928 98.7099 116.854 98.8169 116.728 98.9484C116.603 99.0747 116.454 99.2082 116.281 99.3487C116.106 99.4859 115.936 99.6187 115.769 99.7471C115.6 99.8721 115.459 99.9772 115.346 100.062C115.079 100.26 114.851 100.468 114.661 100.688C114.475 100.905 114.356 101.135 114.305 101.376C114.255 101.613 114.304 101.863 114.452 102.127C114.658 102.494 114.949 102.695 115.326 102.732C115.701 102.765 116.098 102.664 116.517 102.428ZM122.497 100.415L118.227 92.8041L119.659 92.0006L120.338 93.2097L120.417 93.1652C120.326 92.6777 120.389 92.2185 120.608 91.7875C120.828 91.3513 121.161 91.0082 121.607 90.758C121.7 90.7061 121.81 90.6482 121.94 90.5844C122.072 90.5187 122.178 90.4704 122.256 90.4396L123.051 91.8568C122.982 91.8736 122.866 91.9148 122.703 91.9802C122.538 92.0423 122.38 92.116 122.228 92.2013C121.878 92.3977 121.607 92.6472 121.416 92.9497C121.227 93.247 121.126 93.5706 121.114 93.9206C121.1 94.2672 121.186 94.6057 121.371 94.9361L123.979 99.5841L122.497 100.415ZM130.329 88.4579L129.119 89.4491C128.967 89.3089 128.786 89.1954 128.576 89.1087C128.37 89.0202 128.137 88.9838 127.877 88.9996C127.616 89.0154 127.332 89.1095 127.025 89.2818C126.606 89.5172 126.308 89.8078 126.133 90.1537C125.956 90.4962 125.95 90.8145 126.115 91.1085C126.258 91.3628 126.467 91.5148 126.742 91.5645C127.018 91.6141 127.393 91.5708 127.868 91.4345L129.233 91.0336C130.024 90.8026 130.686 90.7592 131.218 90.9034C131.751 91.0476 132.168 91.3889 132.47 91.9274C132.726 92.3833 132.822 92.8638 132.758 93.3688C132.695 93.8687 132.486 94.351 132.13 94.8157C131.777 95.2785 131.294 95.6823 130.679 96.027C129.827 96.5052 129.029 96.7136 128.287 96.6523C127.543 96.5878 126.921 96.2528 126.42 95.6475L127.73 94.626C128.029 94.9492 128.371 95.1288 128.756 95.1647C129.139 95.1974 129.553 95.0886 129.999 94.8384C130.485 94.5659 130.816 94.2474 130.994 93.8828C131.17 93.5149 131.175 93.1839 131.01 92.8899C130.877 92.652 130.676 92.5022 130.406 92.4404C130.14 92.3768 129.803 92.4056 129.393 92.5269L127.946 92.9673C127.145 93.2039 126.475 93.2409 125.937 93.0783C125.401 92.9139 124.982 92.5608 124.678 92.019C124.426 91.5697 124.331 91.1062 124.393 90.6284C124.455 90.1506 124.654 89.6933 124.991 89.2567C125.327 88.8167 125.78 88.4364 126.351 88.1158C127.174 87.6543 127.922 87.4694 128.594 87.5612C129.265 87.6496 129.843 87.9485 130.329 88.4579ZM145.114 81.0552C145.722 82.1387 146.047 83.1815 146.088 84.1835C146.127 85.1823 145.919 86.0851 145.464 86.892C145.01 87.6937 144.346 88.3401 143.47 88.8313C142.591 89.3243 141.69 89.5563 140.766 89.5275C139.844 89.4934 138.965 89.1978 138.132 88.6406C137.298 88.0833 136.578 87.2646 135.972 86.1844C135.364 85.1008 135.04 84.0597 135.001 83.061C134.96 82.0589 135.167 81.157 135.62 80.3553C136.075 79.5484 136.742 78.8985 137.621 78.4055C138.496 77.9143 139.395 77.6858 140.318 77.7198C141.242 77.7487 142.121 78.0418 142.954 78.599C143.786 79.1529 144.506 79.9716 145.114 81.0552ZM143.598 81.9059C143.135 81.08 142.611 80.4597 142.026 80.0449C141.443 79.625 140.839 79.3994 140.213 79.3681C139.589 79.3318 138.986 79.4766 138.405 79.8028C137.82 80.1309 137.381 80.5707 137.086 81.1224C136.79 81.6707 136.668 82.304 136.719 83.0223C136.772 83.7355 137.03 84.505 137.493 85.3309C137.956 86.1568 138.48 86.7797 139.063 87.1996C139.647 87.6144 140.252 87.84 140.876 87.8763C141.498 87.9094 142.101 87.762 142.686 87.4339C143.268 87.1077 143.706 86.6705 144.002 86.1221C144.3 85.5687 144.422 84.9353 144.37 84.2222C144.319 83.5038 144.061 82.7317 143.598 81.9059ZM149.103 75.4816L149.77 76.6708L145.469 79.0839L144.802 77.8947L149.103 75.4816ZM150.252 84.8443L145.487 76.351C145.22 75.8753 145.102 75.4221 145.134 74.9915C145.165 74.5576 145.308 74.1667 145.564 73.8187C145.819 73.4673 146.148 73.1786 146.551 72.9525C146.848 72.7857 147.116 72.6678 147.356 72.5987C147.593 72.5264 147.774 72.4813 147.899 72.4635L148.224 73.8572C148.144 73.8763 148.042 73.9032 147.918 73.938C147.792 73.9694 147.652 74.0287 147.497 74.1158C147.136 74.3178 146.929 74.5516 146.874 74.8171C146.822 75.0807 146.89 75.381 147.079 75.718L151.733 84.013L150.252 84.8443ZM101.164 139.903L95.4704 129.755L101.833 126.185L102.572 127.503L97.7411 130.214L99.4759 133.306L103.975 130.782L104.712 132.095L100.213 134.619L101.956 137.726L106.846 134.982L107.586 136.3L101.164 139.903ZM106.352 126.985L109.694 129.006L109.727 125.092L111.347 124.183L111.109 129.32L115.637 131.783L114.017 132.692L110.706 130.81L110.593 134.613L108.967 135.525L109.201 130.391L104.727 127.897L106.352 126.985ZM118.74 133.795L112.868 123.33L114.315 122.518L115.007 123.752L115.131 123.682C115.128 123.475 115.149 123.223 115.194 122.924C115.239 122.625 115.362 122.317 115.562 122.001C115.761 121.681 116.096 121.388 116.569 121.123C117.183 120.779 117.819 120.626 118.475 120.666C119.132 120.706 119.761 120.941 120.363 121.372C120.969 121.801 121.502 122.427 121.964 123.25C122.425 124.072 122.684 124.854 122.74 125.596C122.794 126.335 122.67 126.997 122.369 127.583C122.066 128.166 121.607 128.629 120.993 128.974C120.53 129.233 120.108 129.368 119.727 129.378C119.35 129.385 119.02 129.332 118.738 129.216C118.456 129.101 118.225 128.987 118.045 128.875L117.956 128.925L120.221 132.964L118.74 133.795ZM116.455 126.321C116.755 126.856 117.096 127.281 117.478 127.597C117.859 127.913 118.261 128.103 118.683 128.166C119.103 128.225 119.526 128.136 119.952 127.897C120.395 127.648 120.699 127.323 120.864 126.922C121.028 126.517 121.072 126.069 120.996 125.578C120.924 125.084 120.744 124.583 120.459 124.074C120.177 123.572 119.848 123.164 119.472 122.85C119.099 122.533 118.698 122.344 118.267 122.281C117.84 122.217 117.404 122.31 116.958 122.56C116.528 122.801 116.227 123.115 116.054 123.503C115.884 123.89 115.834 124.324 115.905 124.805C115.975 125.287 116.159 125.792 116.455 126.321ZM129.117 124.422C128.367 124.843 127.632 125.045 126.91 125.029C126.19 125.007 125.519 124.786 124.897 124.367C124.276 123.942 123.744 123.334 123.301 122.545C122.864 121.765 122.624 120.997 122.581 120.239C122.541 119.479 122.691 118.785 123.029 118.157C123.37 117.527 123.894 117.013 124.601 116.617C125.031 116.376 125.487 116.213 125.969 116.129C126.452 116.045 126.939 116.065 127.43 116.189C127.921 116.314 128.395 116.567 128.853 116.948C129.308 117.327 129.73 117.861 130.117 118.552L130.412 119.077L124.361 122.471L123.739 121.362L128.337 118.782C128.118 118.392 127.845 118.091 127.518 117.879C127.189 117.664 126.832 117.55 126.446 117.536C126.064 117.521 125.681 117.62 125.298 117.835C124.882 118.069 124.576 118.375 124.38 118.754C124.186 119.128 124.096 119.526 124.111 119.947C124.128 120.364 124.242 120.762 124.456 121.142L124.942 122.009C125.228 122.518 125.56 122.9 125.938 123.157C126.32 123.412 126.726 123.543 127.155 123.549C127.582 123.553 128.013 123.433 128.445 123.19C128.726 123.033 128.96 122.849 129.147 122.64C129.332 122.428 129.463 122.194 129.541 121.937C129.618 121.681 129.635 121.409 129.591 121.121L131.135 120.587C131.254 121.063 131.256 121.537 131.139 122.011C131.024 122.48 130.797 122.922 130.457 123.338C130.119 123.75 129.672 124.111 129.117 124.422ZM133.94 121.514L129.67 113.903L131.102 113.1L131.781 114.309L131.86 114.264C131.769 113.777 131.833 113.318 132.051 112.887C132.271 112.45 132.604 112.107 133.05 111.857C133.143 111.805 133.254 111.747 133.383 111.684C133.515 111.618 133.621 111.57 133.699 111.539L134.494 112.956C134.425 112.973 134.309 113.014 134.146 113.079C133.981 113.141 133.823 113.215 133.671 113.3C133.321 113.497 133.05 113.746 132.86 114.049C132.67 114.346 132.569 114.67 132.557 115.02C132.543 115.366 132.629 115.705 132.814 116.035L135.422 120.683L133.94 121.514ZM139.296 118.51L135.026 110.899L136.507 110.067L140.777 117.679L139.296 118.51ZM135.115 109.304C134.857 109.449 134.588 109.487 134.306 109.419C134.027 109.346 133.819 109.189 133.684 108.948C133.546 108.703 133.521 108.444 133.606 108.171C133.693 107.892 133.865 107.68 134.123 107.535C134.38 107.391 134.649 107.355 134.929 107.428C135.21 107.496 135.42 107.653 135.557 107.897C135.692 108.138 135.716 108.398 135.629 108.677C135.544 108.951 135.373 109.16 135.115 109.304ZM146.137 114.874C145.387 115.294 144.652 115.496 143.93 115.48C143.21 115.458 142.539 115.238 141.917 114.818C141.296 114.393 140.764 113.786 140.321 112.996C139.884 112.217 139.644 111.448 139.601 110.69C139.561 109.931 139.711 109.237 140.049 108.608C140.39 107.978 140.914 107.465 141.621 107.068C142.051 106.827 142.507 106.665 142.989 106.581C143.472 106.496 143.959 106.517 144.45 106.641C144.941 106.765 145.415 107.018 145.873 107.4C146.328 107.778 146.75 108.313 147.137 109.003L147.432 109.528L141.381 112.923L140.759 111.813L145.357 109.233C145.138 108.843 144.865 108.542 144.538 108.331C144.209 108.116 143.852 108.001 143.466 107.987C143.084 107.972 142.701 108.071 142.318 108.286C141.902 108.52 141.596 108.826 141.4 109.205C141.206 109.579 141.116 109.977 141.131 110.398C141.148 110.815 141.263 111.213 141.476 111.593L141.962 112.46C142.248 112.969 142.58 113.351 142.958 113.608C143.34 113.863 143.746 113.994 144.175 114C144.602 114.004 145.033 113.884 145.465 113.641C145.746 113.484 145.98 113.301 146.167 113.091C146.352 112.879 146.483 112.645 146.561 112.388C146.638 112.132 146.655 111.86 146.611 111.572L148.155 111.038C148.274 111.514 148.276 111.989 148.159 112.462C148.044 112.931 147.817 113.373 147.477 113.79C147.139 114.201 146.692 114.562 146.137 114.874ZM149.907 106.615L152.442 111.134L150.96 111.966L146.69 104.354L148.112 103.557L148.807 104.795L148.902 104.743C148.851 104.241 148.943 103.764 149.179 103.31C149.419 102.854 149.824 102.466 150.396 102.145C150.914 101.854 151.43 101.708 151.942 101.708C152.452 101.704 152.934 101.855 153.388 102.16C153.842 102.466 154.245 102.933 154.597 103.56L157.313 108.402L155.831 109.233L153.215 104.57C152.906 104.018 152.52 103.668 152.059 103.519C151.595 103.366 151.112 103.431 150.61 103.712C150.267 103.905 150.003 104.151 149.819 104.45C149.638 104.746 149.55 105.082 149.556 105.457C149.564 105.826 149.681 106.212 149.907 106.615ZM162.592 105.642C161.856 106.055 161.128 106.244 160.409 106.209C159.691 106.168 159.024 105.932 158.409 105.5C157.793 105.068 157.271 104.471 156.843 103.708C156.409 102.935 156.172 102.171 156.13 101.417C156.088 100.659 156.237 99.9649 156.578 99.3347C156.92 98.7045 157.449 98.1883 158.166 97.7861C158.744 97.4618 159.319 97.28 159.892 97.2409C160.463 97.1984 160.995 97.2909 161.488 97.5184C161.984 97.7441 162.402 98.0981 162.742 98.5805L161.3 99.3895C161.02 99.0772 160.666 98.8719 160.237 98.7736C159.812 98.6735 159.363 98.7559 158.891 99.021C158.478 99.2526 158.177 99.5646 157.989 99.9568C157.802 100.344 157.735 100.786 157.788 101.282C157.838 101.774 158.016 102.292 158.32 102.833C158.631 103.388 158.984 103.82 159.379 104.129C159.773 104.437 160.186 104.616 160.617 104.665C161.052 104.712 161.479 104.618 161.899 104.383C162.18 104.225 162.405 104.031 162.576 103.801C162.748 103.565 162.857 103.307 162.903 103.025C162.952 102.741 162.931 102.444 162.84 102.135L164.282 101.326C164.505 101.848 164.591 102.377 164.541 102.913C164.49 103.45 164.302 103.955 163.977 104.428C163.655 104.9 163.194 105.304 162.592 105.642ZM170.584 101.158C169.834 101.579 169.098 101.781 168.377 101.765C167.657 101.743 166.986 101.522 166.363 101.102C165.743 100.678 165.211 100.07 164.768 99.2808C164.331 98.5011 164.091 97.7325 164.048 96.9747C164.008 96.2152 164.157 95.5212 164.495 94.8929C164.837 94.2627 165.361 93.7493 166.068 93.3527C166.497 93.1117 166.953 92.9492 167.436 92.8652C167.919 92.7811 168.406 92.8011 168.897 92.9253C169.388 93.0494 169.862 93.3024 170.319 93.6842C170.775 94.0628 171.196 94.5972 171.584 95.2877L171.878 95.8129L165.828 99.2074L165.205 98.0974L169.804 95.5175C169.585 95.1277 169.312 94.827 168.985 94.6153C168.656 94.4003 168.298 94.2859 167.913 94.2721C167.53 94.2564 167.148 94.356 166.764 94.571C166.348 94.8046 166.042 95.1108 165.847 95.4899C165.652 95.8638 165.563 96.2615 165.578 96.683C165.594 97.0995 165.709 97.4976 165.922 97.8775L166.409 98.7447C166.694 99.2534 167.026 99.6361 167.405 99.8928C167.787 100.148 168.192 100.278 168.622 100.285C169.049 100.288 169.479 100.169 169.912 99.926C170.193 99.7684 170.427 99.5851 170.613 99.3761C170.798 99.1638 170.93 98.9294 171.007 98.673C171.085 98.4167 171.102 98.1445 171.057 97.8566L172.602 97.3226C172.721 97.7985 172.722 98.2733 172.606 98.7469C172.491 99.2154 172.263 99.6579 171.924 100.074C171.585 100.486 171.139 100.847 170.584 101.158Z" fill="#666098"/>
</svg>
