<svg width="21" height="21" viewBox="0 0 21 21" fill="none" xmlns="http://www.w3.org/2000/svg">
<path d="M7.25 18.9082C7.94036 18.9082 8.5 18.3486 8.5 17.6582C8.5 16.9678 7.94036 16.4082 7.25 16.4082C6.55964 16.4082 6 16.9678 6 17.6582C6 18.3486 6.55964 18.9082 7.25 18.9082Z" fill="white"/>
<path d="M15.375 18.9082C16.0654 18.9082 16.625 18.3486 16.625 17.6582C16.625 16.9678 16.0654 16.4082 15.375 16.4082C14.6846 16.4082 14.125 16.9678 14.125 17.6582C14.125 18.3486 14.6846 18.9082 15.375 18.9082Z" fill="white"/>
<path d="M4.30469 6.4082H18.3203L16.2578 13.627C16.1842 13.8889 16.0266 14.1195 15.8093 14.2832C15.5919 14.447 15.3268 14.5348 15.0547 14.5332H7.57031C7.29819 14.5348 7.03308 14.447 6.81572 14.2832C6.59836 14.1195 6.44078 13.8889 6.36719 13.627L3.53906 3.73633C3.50169 3.60567 3.42275 3.49075 3.3142 3.40898C3.20565 3.32722 3.0734 3.28306 2.9375 3.2832H1.625" stroke="white" stroke-width="1.5" stroke-linecap="round" stroke-linejoin="round"/>
</svg>
