<svg width="120" height="120" viewBox="0 0 120 120" fill="none" xmlns="http://www.w3.org/2000/svg">
<g filter="url(#filter0_d_2175_4564)">
<circle cx="60" cy="40" r="40" fill="#FD346E"/>
</g>
<g clip-path="url(#clip0_2175_4564)">
<path d="M59.2998 56.8008H60.6998V58.2008H59.2998V56.8008Z" fill="white"/>
<path d="M41.8 35.8H47.89L51.9137 38.4825C52.1284 38.6247 52.4038 38.6372 52.6306 38.5156C52.8578 38.3941 52.9993 38.1575 53 37.9V35.8H55.8C56.5425 35.8 57.2547 35.505 57.78 34.98C58.305 34.4547 58.6 33.7425 58.6 33V21.8C58.6 21.0575 58.305 20.3453 57.78 19.82C57.2547 19.295 56.5425 19 55.8 19H41.8C41.0575 19 40.3453 19.295 39.82 19.82C39.295 20.3453 39 21.0575 39 21.8V33C39 33.7425 39.295 34.4547 39.82 34.98C40.3453 35.505 41.0575 35.8 41.8 35.8ZM40.4 21.8C40.4 21.4288 40.5475 21.0725 40.81 20.81C41.0725 20.5475 41.4287 20.4 41.8 20.4H55.8C56.1712 20.4 56.5275 20.5475 56.79 20.81C57.0525 21.0725 57.2 21.4288 57.2 21.8V33C57.2 33.3713 57.0525 33.7275 56.79 33.99C56.5275 34.2525 56.1712 34.4001 55.8 34.4001H52.3C51.9134 34.4001 51.6 34.7135 51.6 35.1V36.5925L48.4884 34.5178C48.3734 34.4415 48.238 34.4003 48.1 34.4H41.8C41.4287 34.4 41.0724 34.2525 40.81 33.99C40.5475 33.7275 40.3999 33.3712 40.3999 33L40.4 21.8Z" fill="white"/>
<path d="M43.9002 32.9989H52.7202C53.1658 32.9989 53.593 32.822 53.908 32.5067C54.2233 32.1917 54.4002 31.7645 54.4002 31.3189V27.6788C54.4002 27.2333 54.2233 26.8061 53.908 26.491C53.593 26.1757 53.1658 25.9988 52.7202 25.9988H51.6002V24.5988C51.6002 23.8563 51.3052 23.1441 50.7802 22.6188C50.2549 22.0938 49.5427 21.7988 48.8002 21.7988C48.4289 21.7988 48.0727 21.9463 47.8102 22.2088C47.5477 22.4713 47.4002 22.8276 47.4002 23.1988V25.0091L46.4105 25.9988H43.9002C43.5136 25.9988 43.2002 26.3123 43.2002 26.6988V32.2988C43.2002 32.4845 43.2739 32.6626 43.4052 32.7938C43.5364 32.9251 43.7146 32.9989 43.9002 32.9989ZM48.5953 25.7939C48.7265 25.6627 48.8002 25.4845 48.8002 25.2989V23.1989C49.1715 23.1989 49.5277 23.3464 49.7902 23.6089C50.0527 23.8714 50.2003 24.2277 50.2003 24.5989V25.9989H49.5002V27.3989H52.7203C52.7946 27.3989 52.8658 27.4283 52.9183 27.4808C52.9708 27.5333 53.0002 27.6045 53.0002 27.6789V31.3189C53.0002 31.3933 52.9708 31.4645 52.9183 31.517C52.8658 31.5695 52.7946 31.5989 52.7203 31.5989H47.4002V26.9886L48.5953 25.7939ZM44.6002 27.3989H46.0002V31.5989H44.6002V27.3989Z" fill="white"/>
<path d="M78.2002 24.5988H71.1303C70.9678 23.8088 70.5381 23.0988 69.913 22.5888C69.2884 22.0788 68.5068 21.7998 67.7002 21.7988H60.0003V23.1988H67.7002C68.1331 23.2007 68.5546 23.336 68.9074 23.5866C69.2602 23.8373 69.5272 24.1907 69.6716 24.5988H65.6003C64.6043 24.6019 63.6859 25.1354 63.1893 25.9988H60.0002V27.3988H62.8003V37.1988C62.8003 37.9413 63.0952 38.6535 63.6203 39.1788C64.1455 39.7038 64.8577 39.9988 65.6003 39.9988V42.0988C65.6003 42.3569 65.7425 42.5945 65.9699 42.716C66.1978 42.8378 66.474 42.8244 66.6887 42.6813L69.8003 40.6063V46.0088L68.5453 44.7537C67.7431 43.9519 66.574 43.6387 65.4787 43.9321C64.3831 44.2256 63.5271 45.0815 63.2337 46.1771C62.9403 47.2724 63.2534 48.4415 64.0553 49.2437L67.4978 52.6861C67.2266 53.098 67.001 53.5379 66.8247 53.9986H60.7003V55.3986H66.4487C66.2212 56.8349 66.4577 58.3061 67.124 59.5986H52.3C51.7431 59.5986 51.2087 59.3774 50.8151 58.9836C50.4214 58.5899 50.2001 58.0554 50.2001 57.4986H55.8001C56.5425 57.4986 57.2548 57.2036 57.7801 56.6786C58.3051 56.1533 58.6 55.4411 58.6 54.6986V49.0986C58.6 48.3561 58.3051 47.6439 57.7801 47.1186C57.2547 46.5936 56.5425 46.2986 55.8001 46.2986H53V44.1986C53 43.9405 52.8578 43.703 52.6304 43.5815C52.4025 43.4596 52.1263 43.473 51.9116 43.6161L50.2 44.7586V38.5986H48.8V45.6911L47.89 46.2986H41.8C41.0575 46.2986 40.3453 46.5936 39.82 47.1186C39.295 47.6439 39 48.3561 39 49.0986V54.6986C39 55.4411 39.295 56.1533 39.82 56.6786C40.3453 57.2036 41.0575 57.4986 41.8 57.4986H48.8C48.8012 58.4264 49.1703 59.3161 49.8263 59.9723C50.4825 60.6283 51.3721 60.9973 52.3 60.9986H67.7C67.8722 60.9971 68.0437 60.9827 68.2138 60.9551C68.2735 60.9783 68.3363 60.9929 68.4 60.9986H76.8C76.9856 60.9986 77.1637 60.9248 77.295 60.7936C77.4263 60.6623 77.5 60.4842 77.5 60.2986V47.0266C77.5028 45.1775 76.8369 43.3901 75.6253 41.9935L74.0869 39.9984H78.2C78.9425 39.9984 79.6547 39.7034 80.18 39.1784C80.705 38.6531 81 37.9409 81 37.1984V27.3984C81 26.6559 80.705 25.9437 80.18 25.4184C79.6547 24.8934 78.9427 24.5988 78.2002 24.5988ZM41.8003 56.0988C41.429 56.0988 41.0728 55.9514 40.8103 55.6889C40.5478 55.4264 40.4003 55.0701 40.4003 54.6989V49.0988C40.4003 48.7276 40.5478 48.3713 40.8103 48.1088C41.0728 47.8463 41.429 47.6988 41.8003 47.6988H48.1003C48.2384 47.6985 48.3737 47.6576 48.4887 47.5814L51.6003 45.5063V46.9988C51.6003 47.1844 51.6741 47.3625 51.8053 47.4938C51.9366 47.625 52.1147 47.6987 52.3004 47.6987H55.8003C56.1716 47.6987 56.5278 47.8463 56.7903 48.1088C57.0528 48.3713 57.2003 48.7275 57.2003 49.0988V54.6988C57.2003 55.07 57.0528 55.4263 56.7903 55.6888C56.5278 55.9513 56.1716 56.0987 55.8003 56.0987L41.8003 56.0988ZM74.5443 42.8813C75.5477 44.0294 76.1005 45.5022 76.1005 47.0268V59.5988H68.7546C68.123 58.7036 67.7765 57.6379 67.7609 56.5423C67.7452 55.4467 68.0608 54.3716 68.6664 53.4585L68.9814 52.9895C69.1683 52.7117 69.1321 52.3407 68.8955 52.1039L65.0455 48.2539C64.6086 47.8032 64.4424 47.1554 64.608 46.5501C64.7736 45.9447 65.2464 45.4719 65.8517 45.3063C66.4571 45.1407 67.1049 45.307 67.5555 45.7439L72.8055 50.9939L73.7952 50.0042L71.2005 47.4091V39.9988H72.3205L74.5443 42.8813ZM79.6005 37.1987C79.6005 37.57 79.453 37.9262 79.1905 38.1887C78.9281 38.4512 78.5717 38.5988 78.2005 38.5988H70.5005C70.3624 38.5991 70.2271 38.64 70.1121 38.7163L67.0005 40.7913V39.2988C67.0005 39.1132 66.9267 38.9351 66.7955 38.8038C66.6642 38.6726 66.4861 38.5988 66.3004 38.5988H65.6005C65.2292 38.5988 64.873 38.4513 64.6105 38.1888C64.348 37.9263 64.2005 37.5701 64.2005 37.1988V27.3988C64.2005 27.0275 64.348 26.6713 64.6105 26.4088C64.873 26.1463 65.2292 25.9988 65.6005 25.9988H78.2005C78.5717 25.9988 78.928 26.1463 79.1905 26.4088C79.453 26.6713 79.6005 27.0275 79.6005 27.3988V37.1987Z" fill="white"/>
<path d="M75.0105 28.1519C74.1661 27.9919 73.2946 28.2188 72.6354 28.77L71.9011 29.3735L71.1673 28.77C70.5079 28.2185 69.636 27.9916 68.7917 28.1519C67.9042 28.3329 67.1442 28.9022 66.721 29.7032C66.3348 30.3991 66.2057 31.2091 66.356 31.9907C66.5064 32.7726 66.9267 33.4767 67.5436 33.9801L71.4698 37.0545C71.7232 37.2526 72.0789 37.2526 72.3323 37.0545L76.2585 33.9801C76.8754 33.4767 77.2954 32.7723 77.4457 31.9904C77.5963 31.2085 77.467 30.3988 77.081 29.7022C76.6576 28.9019 75.898 28.3329 75.0105 28.1519ZM75.3955 32.874L71.9011 35.6103L68.4067 32.874C68.0536 32.5744 67.8148 32.1619 67.7311 31.7066C67.6473 31.251 67.7236 30.7806 67.9467 30.375C68.1713 29.9403 68.5786 29.6287 69.057 29.5259C69.1473 29.509 69.2389 29.5003 69.3307 29.4999C69.6779 29.5022 70.0132 29.6262 70.2786 29.85L71.4568 30.8193C71.7148 31.0318 72.0874 31.0318 72.3454 30.8193L73.5245 29.85C73.861 29.5622 74.3098 29.4425 74.7451 29.5244C75.2233 29.6275 75.6304 29.9388 75.8554 30.3728C76.0792 30.7787 76.1554 31.2496 76.0717 31.7055C75.988 32.1612 75.7489 32.574 75.3955 32.874Z" fill="white"/>
<path d="M41.8008 49.8008H51.6008V51.2007H41.8008V49.8008Z" fill="white"/>
<path d="M53.001 49.8008H55.801V51.2007H53.001V49.8008Z" fill="white"/>
<path d="M41.8008 52.5996H46.0008V53.9996H41.8008V52.5996Z" fill="white"/>
<path d="M47.4004 52.5996H55.8004V53.9996H47.4004V52.5996Z" fill="white"/>
</g>
<defs>
<filter id="filter0_d_2175_4564" x="0" y="0" width="120" height="120" filterUnits="userSpaceOnUse" color-interpolation-filters="sRGB">
<feFlood flood-opacity="0" result="BackgroundImageFix"/>
<feColorMatrix in="SourceAlpha" type="matrix" values="0 0 0 0 0 0 0 0 0 0 0 0 0 0 0 0 0 0 127 0" result="hardAlpha"/>
<feOffset dy="20"/>
<feGaussianBlur stdDeviation="10"/>
<feColorMatrix type="matrix" values="0 0 0 0 0.996078 0 0 0 0 0.858824 0 0 0 0 0.898039 0 0 0 1 0"/>
<feBlend mode="normal" in2="BackgroundImageFix" result="effect1_dropShadow_2175_4564"/>
<feBlend mode="normal" in="SourceGraphic" in2="effect1_dropShadow_2175_4564" result="shape"/>
</filter>
<clipPath id="clip0_2175_4564">
<rect width="42" height="42" fill="white" transform="translate(39 19)"/>
</clipPath>
</defs>
</svg>
